# xmcd
#
# Track frame offsets:
#	150
#	13568
#	30468
#	42718
#	56658
#	68380
#	84058
#	100528
#	118290
#
# Disc length: 1837 seconds
#
# Revision: 2
# Processed by: cddbd v1.5.1PL0 Copyright (c) Steve Scherf et al.
# Submitted via: audiograbber 1.83.01
#
DISCID=65072b09
DTITLE=Various Artist - Country's Greatest Hits  Lonely Hearts
DYEAR=1900
DGENRE=Country
TTITLE0=Alan Jackson - Wanted
TTITLE1=Rebe McEntire - 'Til Love Comes Again
TTITLE2=Merle Haggard - A Better Love Next Time
TTITLE3=Patty Loveless - The Lonely Side of Love
TTITLE4=Southern Pacific - I Go To Pieces
TTITLE5=Highway 101 - Who's Lonely Now
TTITLE6=Eddie Rabbitt - On Second Thought
TTITLE7=Michelle Wright - New Kind of Love
TTITLE8=Lee Roy Parnell - Oughta Be a Law
EXTD=
EXTT0=
EXTT1=
EXTT2=
EXTT3=
EXTT4=
EXTT5=
EXTT6=
EXTT7=
EXTT8=
PLAYORDER=
